<svg xmlns="http://www.w3.org/2000/svg" viewBox="0 0 100 100" fill="none">
  <defs>
    <linearGradient id="bg" x1="0%" y1="0%" x2="100%" y2="100%">
      <stop offset="0%" stop-color="#FF2D55"/>
      <stop offset="100%" stop-color="#FF6035"/>
    </linearGradient>
  </defs>
  <rect width="100" height="100" rx="22" fill="url(#bg)"/>
  <path d="M50 15C30.7 15 15 30.7 15 50s15.7 35 35 35c16.6 0 30.5-11.5 34.2-27H71.8C68.6 66.3 60 72 50 72c-12.1 0-22-9.9-22-22s9.9-22 22-22c10 0 18.6 5.7 21.8 14H84.2C80.5 26.5 66.6 15 50 15z" fill="white"/>
  <circle cx="50" cy="50" r="10" fill="white"/>
  <rect x="72" y="15" width="12" height="50" rx="6" fill="white"/>
</svg>
